<svg width="42" height="49" viewBox="0 0 42 49" fill="none" xmlns="http://www.w3.org/2000/svg">
<path fill-rule="evenodd" clip-rule="evenodd" d="M27.5606 45.9491C32.1 43.7676 35.965 40.3242 38.4056 35.8791C41.3724 30.4746 41.0382 24.8467 41.0382 18.8433V9.89362C26.546 8.75192 20.5247 0.699219 20.5247 0.699219C20.5247 0.699219 14.5034 8.75192 0.0111627 9.89362V18.8433C0.0111627 24.8467 -0.321505 30.4746 2.64529 35.8791C5.08435 40.3242 8.95086 43.7676 13.4888 45.9491C15.7358 47.0285 18.0917 47.8084 20.5202 48.3511C22.9486 47.8084 25.3136 47.0285 27.5606 45.9491Z" fill="url(#paint0_linear_214_2781)"/>
<path fill-rule="evenodd" clip-rule="evenodd" d="M20.6693 48.3511C23.0803 47.8084 25.4282 47.0285 27.659 45.9491C32.1656 43.7676 36.0027 40.3242 38.4257 35.8791C41.3711 30.4746 41.0393 24.8467 41.0393 18.8433V9.89362C26.6517 8.75192 20.6738 0.699219 20.6738 0.699219L20.6693 48.3511Z" fill="#361869"/>
<circle cx="20.6684" cy="26.5857" r="5.6061" fill="#FDAD78"/>
<defs>
<linearGradient id="paint0_linear_214_2781" x1="0" y1="0.699219" x2="0" y2="48.3511" gradientUnits="userSpaceOnUse">
<stop stop-color="#8453F0"/>
<stop offset="1" stop-color="#361869"/>
</linearGradient>
</defs>
</svg>
