<svg width="51" height="53" viewBox="0 0 51 53" fill="none" xmlns="http://www.w3.org/2000/svg">
<circle cx="28.3579" cy="24.0678" r="18.3588" fill="#B97140"/>
<circle cx="28.3579" cy="22.1126" r="18.3588" fill="url(#paint0_linear_214_2795)"/>
<circle cx="28.3588" cy="22.1124" r="14.0135" fill="url(#paint1_linear_214_2795)"/>
<path d="M28.1017 28.6939L24.7717 22.885V21.5161H25.8817C26.3257 21.5161 26.7142 21.4544 27.0472 21.3311C27.3925 21.1954 27.6762 21.0042 27.8982 20.7576C28.1325 20.5109 28.2928 20.2149 28.3792 19.8696H24.7717V18.5006H28.3607C28.2867 18.18 28.1572 17.8963 27.9722 17.6496C27.7995 17.403 27.5652 17.2118 27.2692 17.0761C26.9855 16.9281 26.6402 16.8541 26.2332 16.8541H24.7717V15.4852H33.1151V16.8541H30.2106C30.4203 17.0885 30.593 17.3413 30.7286 17.6126C30.8766 17.884 30.9753 18.18 31.0246 18.5006H33.1151V19.8696H31.0616C30.9383 20.7822 30.5868 21.4976 30.0071 22.0155C29.4275 22.5212 28.6813 22.8665 27.7687 23.0515L31.3946 28.6939H28.1017Z" fill="url(#paint2_linear_214_2795)"/>
<path fill-rule="evenodd" clip-rule="evenodd" d="M37.5639 52.2589C38.5311 53.4684 41.8699 52.3541 45.0209 49.7707C48.1721 47.1873 49.9426 44.1125 48.9751 42.9032C48.008 41.6941 44.6694 42.808 41.5182 45.3914C38.367 47.9751 36.5968 51.0495 37.5639 52.2589Z" fill="#B97140"/>
<path fill-rule="evenodd" clip-rule="evenodd" d="M36.0134 50.4712C36.9805 51.6806 40.3194 50.5663 43.4703 47.983C46.6216 45.3995 48.392 42.3248 47.4246 41.1154C46.4575 39.9063 43.1189 41.0203 39.9676 43.6037C36.8164 46.1874 35.0462 49.2618 36.0134 50.4712Z" fill="#FFDAB5"/>
<path fill-rule="evenodd" clip-rule="evenodd" d="M42.8298 47.2906C44.8254 45.6528 45.9463 43.7033 45.3334 42.9363C44.7207 42.1694 42.6064 42.8754 40.6108 44.5132C38.6153 46.1512 37.4946 48.1006 38.1073 48.8676C38.72 49.6346 40.8345 48.9284 42.8298 47.2906Z" fill="url(#paint3_linear_214_2795)"/>
<path fill-rule="evenodd" clip-rule="evenodd" d="M1.08315 4.15678C-0.300611 5.459 1.36282 9.5292 4.79776 13.2472C8.23279 16.9655 12.1392 18.924 13.5229 17.6214C14.9063 16.3193 13.2433 12.2494 9.80829 8.53104C6.37292 4.8128 2.4669 2.85457 1.08315 4.15678Z" fill="#959595"/>
<path fill-rule="evenodd" clip-rule="evenodd" d="M14.6388 15.9451L13.3424 17.4284L0.68794 4.77444L1.81045 3.3674L14.6388 15.9451Z" fill="#959595"/>
<path fill-rule="evenodd" clip-rule="evenodd" d="M2.20342 3.0816C0.845906 4.35155 2.46955 8.31215 5.82921 11.9272C9.18894 15.5426 13.0131 17.4438 14.3705 16.1735C15.7277 14.9037 14.1045 10.9433 10.7447 7.32793C7.38466 3.71261 3.56094 1.81165 2.20342 3.0816Z" fill="#E9E9E9"/>
<path fill-rule="evenodd" clip-rule="evenodd" d="M6.48961 10.9594C8.67484 13.282 11.1666 14.4992 12.055 13.678C12.9433 12.8571 11.892 10.3087 9.70675 7.98612C7.52129 5.66355 5.0298 4.44649 4.14133 5.26746C3.25285 6.08844 4.30443 8.63699 6.48961 10.9594Z" fill="url(#paint4_linear_214_2795)"/>
<defs>
<linearGradient id="paint0_linear_214_2795" x1="9.99915" y1="3.75378" x2="9.99915" y2="40.4713" gradientUnits="userSpaceOnUse">
<stop stop-color="#FFE3C6"/>
<stop offset="1" stop-color="#FAB46D"/>
</linearGradient>
<linearGradient id="paint1_linear_214_2795" x1="10.9119" y1="1.23195" x2="10.9119" y2="36.1259" gradientUnits="userSpaceOnUse">
<stop stop-color="#E19663"/>
<stop offset="1" stop-color="#A65F30"/>
</linearGradient>
<linearGradient id="paint2_linear_214_2795" x1="24.7717" y1="15.4852" x2="24.7717" y2="28.6939" gradientUnits="userSpaceOnUse">
<stop stop-color="#FFE3C6"/>
<stop offset="1" stop-color="#FAB46D"/>
</linearGradient>
<linearGradient id="paint3_linear_214_2795" x1="40.5249" y1="48.6358" x2="38.7573" y2="44.762" gradientUnits="userSpaceOnUse">
<stop stop-color="#ECA372"/>
<stop offset="1" stop-color="#D38957"/>
</linearGradient>
<linearGradient id="paint4_linear_214_2795" x1="4.63677" y1="8.23017" x2="9.24591" y2="5.73245" gradientUnits="userSpaceOnUse">
<stop stop-color="#929292"/>
<stop offset="1" stop-color="#ADADAD"/>
</linearGradient>
</defs>
</svg>
